<?xml version="1.0" encoding="utf-8"?>
<!-- Svg Vector Icons : http://www.onlinewebfonts.com/icon -->
<!DOCTYPE svg PUBLIC "-//W3C//DTD SVG 1.1//EN" "http://www.w3.org/Graphics/SVG/1.1/DTD/svg11.dtd">
<svg version="1.1" xmlns="http://www.w3.org/2000/svg" xmlns:xlink="http://www.w3.org/1999/xlink" height="50px" viewBox="0 0 256 256" enable-background="new 0 0 256 256" xml:space="preserve">
<metadata> Svg Vector Icons : http://www.onlinewebfonts.com/icon </metadata>
<g><g><g><path fill="#000000" d="M120.5,10.1c-18.3,1.6-32.6,5.6-47.4,13.3C51.6,34.6,33.3,53.2,22.4,74.9C14,91.8,10,108.7,10,128c0,19.3,4,36.3,12.4,53c9.6,19.2,25.8,36.7,44.4,48c38.7,23.6,88.4,22.6,126.4-2.7c49.1-32.6,66.6-95.9,41.4-149.1c-5.9-12.3-13-22.3-23.2-32.6c-18.9-18.9-41-29.9-67.7-33.7C138.8,10.3,124.5,9.7,120.5,10.1z M137.4,50.2c13.3,2.8,25,11.9,31.2,24.5c3.6,7.2,4.2,10.6,4.3,19.6c0,10.5-0.4,12.2-8.3,27.9c-8.3,16.7-10.7,23.5-13,36c-0.6,3.6-1.4,7.8-1.7,9.5l-0.6,3h-21.5h-21.5l-0.6-3c-0.3-1.7-1.1-5.9-1.7-9.5c-2.3-12.6-4.7-19.3-13-36c-7.3-14.7-8-17-8.4-26.1c-0.2-5.1,0-7.1,0.7-10.7c3.1-15,13.6-27.4,27.8-33.1c3.2-1.2,8.3-2.5,12.4-3C126.4,49,133.9,49.5,137.4,50.2z M71.4,56.7c5.1,3,9.7,5.9,10.3,6.5c1.6,1.8,1.4,4.5-0.6,6.5c-2.6,2.6-3.6,2.4-14.3-3.8c-5.1-2.9-9.8-5.9-10.4-6.6c-1.6-1.7-1.2-4.8,0.8-6.6C59.8,50.3,61,50.7,71.4,56.7z M198.6,52.7c2,1.8,2.4,4.9,0.8,6.6c-0.6,0.7-5.3,3.6-10.4,6.6c-10.7,6.2-11.7,6.4-14.3,3.8c-1.9-1.9-2.2-4.6-0.5-6.5c0.6-0.6,5.2-3.6,10.2-6.5C194.9,50.7,196,50.3,198.6,52.7z M72.5,90.8c3.3,1.7,3,7.6-0.3,9c-0.9,0.4-4.7,0.5-13,0.4l-11.7-0.1l-1.1-1.3c-0.8-1-1.1-1.8-1.1-3.4c0-2.5,0.6-3.6,2.2-4.5C49.3,89.9,70.6,89.8,72.5,90.8z M208.2,90.8c1.8,0.9,2.3,2,2.3,4.6c0,1.5-0.3,2.4-1.1,3.4l-1.1,1.3l-11.7,0.1c-8.3,0.1-12.1,0-13-0.4c-3.4-1.4-3.6-7.2-0.3-9C185.1,89.8,206.4,89.9,208.2,90.8z M81.1,120.8c1.2,1.2,1.6,1.9,1.6,3.4c0,1.1-0.4,2.3-0.9,3c-0.5,0.6-5.2,3.6-10.5,6.6c-11,6.3-11.8,6.6-14.4,3.7c-1.8-1.9-2.1-4.6-0.7-6.2c0.4-0.6,5-3.5,10.3-6.5C77.5,118.4,78.5,118.2,81.1,120.8z M189.4,124.8c5.4,3.1,10,6.1,10.4,6.7c0.9,1.3,0.6,4.4-0.6,5.8c-1.3,1.6-3.6,2.3-5.1,1.7c-2.7-1-19.2-10.8-20-11.9c-0.5-0.7-0.9-1.8-0.9-3c0-1.5,0.3-2.2,1.6-3.4C177.4,118.2,178.2,118.4,189.4,124.8z M147.8,174.6c1.2,1.2,1.2,4.4,0.1,5.6c-0.7,0.8-1.9,0.8-19.9,0.8c-21.7,0-20.9,0.1-20.9-3.6c0-1.4,0.3-2.3,0.9-2.9c0.9-0.9,1.5-0.9,19.9-0.9C146.2,173.7,146.9,173.8,147.8,174.6z M147.9,185.6c0.6,0.5,0.8,1.4,0.8,3c0,3.8,0.7,3.6-20.8,3.6c-21.5,0-20.8,0.1-20.8-3.6c0-4-1.1-3.8,20.7-3.8C145,184.8,147.1,184.9,147.9,185.6z M147.8,196.3c1.2,1.2,1.2,4.4,0.1,5.6c-0.7,0.8-1.9,0.8-19.9,0.8c-21.9,0-20.9,0.2-20.9-3.7c0-3.8-0.7-3.6,20.9-3.6C146.2,195.4,146.9,195.4,147.8,196.3z M141.3,207.8c-0.6,2.1-1.8,3.6-4.1,5c-3.1,1.9-5.4,2.6-9.3,2.6c-6.7,0-12.1-3.1-13.4-7.6l-0.4-1.3h13.8h13.8L141.3,207.8z"/><path fill="#000000" d="M121,59.4c-18.5,4-30.9,21-28.6,39.2c0.7,5.6,2,9,7.3,19.3c7.5,14.4,11.1,24.2,13.4,36.3c0.6,2.8,1.1,5.5,1.2,6c0.2,1,0.4,1.1,4.3,1.1h4.2v-14.2v-14.2l-8-8.1c-5-5-8.2-8.5-8.4-9.4c-0.8-3.1,1.8-6.3,4.9-6.3c1.7,0,2.2,0.4,9,6.9c4,3.8,7.4,6.9,7.7,6.9c0.3,0,3.6-3.1,7.5-6.9c6.7-6.6,7.1-6.9,8.9-6.9c3.2,0,5.8,3.2,5,6.3c-0.2,0.8-3.4,4.3-8.4,9.4l-8,8.1v14.2v14.2h4.2c3.9,0,4.2,0,4.3-1c0.1-0.6,0.7-3.4,1.2-6.1c2.2-11.7,5.3-20.1,13.3-35.8c6.7-13.3,7.6-16.2,7.7-23.8c0-6.2-0.9-10-3.6-15.7c-4.4-9.1-12-15.5-22.2-18.7C133.7,58.8,125.3,58.5,121,59.4z"/></g></g></g>
</svg>