<?xml version="1.0" encoding="utf-8"?>
<!-- Svg Vector Icons : http://www.onlinewebfonts.com/icon -->
<!DOCTYPE svg PUBLIC "-//W3C//DTD SVG 1.1//EN" "http://www.w3.org/Graphics/SVG/1.1/DTD/svg11.dtd">
<svg version="1.1" xmlns="http://www.w3.org/2000/svg" xmlns:xlink="http://www.w3.org/1999/xlink" height="50px" viewBox="0 0 256 256" enable-background="new 0 0 256 256" xml:space="preserve">
<metadata> Svg Vector Icons : http://www.onlinewebfonts.com/icon </metadata>
<g><g><g><path fill="#000000" d="M126.1,10.6c-48.6,4.6-78.2,33.2-80.2,77.6c-0.2,3.9-0.9,9.9-1.6,13.3c-1,5.1-1.8,7-4.4,11.1c-1.7,2.7-4.9,6.8-7.2,9.2c-4.9,5.1-7.9,9.3-9.3,13.2c-1.8,4.8-0.3,7.6,5.7,10.8c4.1,2.2,9.7,6.4,9.7,7.3c0,0.4-0.7,1.9-1.5,3.2c-4.3,7-4.3,7.6,0.1,9.3c1.6,0.6,3.8,1.8,4.7,2.7l1.7,1.6l-1.8,1.6c-2.5,2.2-5.1,6.1-5.1,7.6c0,0.7,1.4,2.9,3.1,4.9c3,3.3,3.2,3.7,3.1,6.7c-0.1,1.9-0.7,4.8-1.6,7.2c-2,5.2-2.1,9.2-0.1,12.3c2.3,3.6,6.2,6.7,9.7,7.8c4.7,1.4,20.3,1.3,33.8-0.2c16.8-1.9,21.6-1.5,22.9,1.7c0.3,0.8,0.6,6.5,0.6,12.7s0.2,11.8,0.4,12.6l0.4,1.4h46.7h46.7l-3.6-26.6l-3.6-26.6l1.7-6.2c3.1-10.9,7.3-18.9,19.2-36.4c3.9-5.7,7.9-11.6,8.9-13c2.4-3.6,5.8-12,7-17.4c0.9-3.7,1.1-7.7,1.1-18.9c0-12.4-0.2-15-1.4-20.5c-4-18.4-13.2-34-27.2-46.2C183.8,15.8,156.7,7.7,126.1,10.6z M174.7,37.4c0.6,0.5,1,1.8,1,2.8c0,1.2,0.4,1.9,1.1,2.2c0.6,0.2,2,0.7,3.1,1.2c1.9,0.9,2.2,0.9,3.4-0.4c1.8-1.6,3.3-1.5,5.1,0.1c1.8,1.7,1.8,3-0.1,4.7l-1.4,1.4l1.3,3.3c1.2,3.1,1.5,3.4,3.3,3.4c2.4,0,3.9,1.4,3.9,3.7c0,2.3-1.5,3.7-4.1,3.7c-1.4,0-2.1,0.3-2.1,0.8c0,0.5-0.7,2.2-1.5,3.8c-1.5,3-1.5,3-0.3,4.3c1.7,1.8,1.6,4.3-0.1,5.5c-1.9,1.4-3,1.2-4.8-0.6c-1.6-1.5-1.6-1.5-4.2-0.5c-2.3,1-2.6,1.4-2.6,3.1c0,2.2-1.3,3.3-4.1,3.3c-2.3,0-3.3-1-3.3-3.3c0-1.7-0.3-2-3.5-3.3l-3.5-1.4l-1.8,1.5c-2.2,1.8-2.6,1.8-4.4-0.1c-2-1.9-2-3.4,0-5.2l1.5-1.4l-1.2-2.3c-0.7-1.3-1.2-2.8-1.2-3.3c0-0.7-0.6-0.9-2.3-0.9c-3,0-3.8-0.9-3.8-3.8c0-2.6,1.2-3.6,4.3-3.6c1.3,0,1.9-0.3,1.9-0.9c0-0.6,0.4-1.8,0.9-2.7c0.8-1.7,0.8-1.8-0.6-3.1c-1.8-1.7-2-3.9-0.3-5.5c1.6-1.6,3.2-1.5,4.9,0.2l1.4,1.5l2.7-1.4c1.5-0.7,3.3-1.5,4-1.7c1-0.2,1.3-0.8,1.3-2.4c0-1.2,0.3-2.4,0.7-2.8C170.1,36.1,173.6,36.2,174.7,37.4z M98.9,46.9c1,0.4,2,1.5,2.7,3.2l1.1,2.5l6.5,0.1l6.5,0.1l1-2.2c1.4-3.3,3.6-4.6,6.2-3.7c4.1,1.5,5.2,4,3.3,8.3l-0.9,2l3.8,4l3.8,4l2.5-0.9c3.3-1.2,5.5-0.6,6.7,1.7c1,1.9,1.2,4.7,0.4,6c-0.2,0.4-1.7,1.3-3.3,2l-2.8,1.3l-0.1,5.5l-0.1,5.4l2.5,1.2c3.9,1.7,4.7,4.4,2.4,8.1c-1.6,2.7-3.4,3-6.8,1.5l-2.8-1.2l-2,2.3c-1.1,1.4-3.2,3.2-4.7,4.2c-1.9,1.2-2.7,2-2.4,2.7c0.2,0.5,0.7,1.9,1,3.2c0.9,2.9-0.4,4.9-3.6,5.9c-3.4,1-5.1,0.2-6.6-3.5c-1.1-2.7-1.5-3.1-3-3.1c-0.9,0-3-0.2-4.6-0.4c-2.8-0.4-2.8-0.4-3.8,1.8c-1.2,3-2.5,4.1-4.7,4.1c-4.5,0-7.1-3.3-5.5-7c1.2-3.1,1-3.7-2.6-7.6l-3.5-3.8l-2.8,1c-3.5,1.3-5.5,0.6-7-2.6c-1.5-3.1-0.6-5.2,3.1-7l2.9-1.4v-4.1c0-2.2,0.2-4.6,0.4-5.3c0.2-1-0.3-1.5-2.7-2.8c-3.8-2-4.5-3.8-2.9-7.2c1.6-3.3,3.8-3.9,7.2-2.3l2.6,1.2l3.3-3.3l3.3-3.3l-1-3.1c-1.4-3.7-0.7-5.9,2.4-7.2C96.9,46.1,96.9,46.1,98.9,46.9z M171.9,91.6c1,0.7,1.4,1.5,1.4,3.7c0,1.7,0.2,2.7,0.8,2.7c0.4,0,2.2,0.7,3.9,1.5l3.1,1.5l1.7-1.8c2.2-2.3,3.6-2.3,5.9,0c2.2,2.3,2.2,3.2,0,5.8l-1.9,2l1.7,4.1c1.5,4.1,1.7,4.1,3.9,4.1c3.2,0,5.5,2,5.5,4.7c0,3-2.3,5.2-5.4,5.2c-2.3,0.1-2.4,0.1-4.5,4.6l-2.2,4.6l1.7,1.8c2.1,2.4,2.2,4,0.2,5.9c-2.1,2.2-4.7,2-6.6-0.3l-1.5-1.8l-3.2,1.4c-3.1,1.4-3.2,1.4-3.2,3.9c0,3.5-1.2,4.6-4.7,4.6c-3.8,0-5.1-1.2-5.1-4.6v-2.5L159,141l-4.4-1.7l-1.7,1.6c-2.1,2-4.6,2.1-6.5,0.1c-2-1.9-1.9-3.1,0-6l1.6-2.3l-1.4-3.7c-1.4-3.6-1.4-3.7-3.9-3.7c-3.6,0-5.2-1.4-5.2-4.4c0-3.5,1.8-5.4,5.2-5.4c2.5,0,2.5-0.1,3.8-3.3l1.3-3.4l-1.7-1.7c-2.5-2.6-2.7-4.1-0.8-6.3c2-2.4,4.2-2.5,6.5-0.2c1.6,1.5,1.9,1.6,3.1,0.8c2.9-1.8,5.7-3.1,7-3.1c1.2,0,1.4-0.3,1.4-2.6c0-3.4,1.3-4.8,4.6-4.8C169.4,90.7,171.1,91.1,171.9,91.6z"/><path fill="#000000" d="M167.1,51.7c-3,1.5-5.1,5.7-4.7,9.2c1,9.3,13.3,11.6,17.6,3.3C184.1,56,175.2,47.4,167.1,51.7z"/><path fill="#000000" d="M105.8,66.1c-4.4,1-8.4,4.7-9.9,9.1c-1.8,5.2-0.9,9.7,2.9,13.9c3.1,3.5,6.6,4.9,11.7,4.5c15.4-1,17.5-22.9,2.6-27.4C109.8,65.3,109.2,65.3,105.8,66.1z"/><path fill="#000000" d="M162.4,109.5c-4.3,2.2-6.5,5.9-6.5,10.9c0,9.8,11.6,15,19.2,8.7c8.3-7,3.4-20.5-7.4-20.5C165.8,108.5,163.5,109,162.4,109.5z"/></g></g></g>
</svg>