<?xml version="1.0" encoding="utf-8"?>
<!-- Svg Vector Icons : http://www.onlinewebfonts.com/icon -->
<!DOCTYPE svg PUBLIC "-//W3C//DTD SVG 1.1//EN" "http://www.w3.org/Graphics/SVG/1.1/DTD/svg11.dtd">
<svg version="1.1" xmlns="http://www.w3.org/2000/svg" xmlns:xlink="http://www.w3.org/1999/xlink" x="0px" y="0px" height="50px" viewBox="0 0 256 256" enable-background="new 0 0 256 256" xml:space="preserve">
<metadata> Svg Vector Icons : http://www.onlinewebfonts.com/icon </metadata>
<g><g><g><path fill="#000000" d="M118.9,10.2C103.7,11.4,89.7,15.3,76,22c-12,5.9-20.6,12-30.4,21.5c-10.1,9.8-17.4,19.9-23.6,32.6c-5.8,11.9-9.4,23.6-11.4,37.4c-0.8,5.4-0.8,23.6,0,29.1c3.3,22.9,12.1,43.4,26.1,60.4c32.6,39.6,86.6,53.7,134.2,35.1c30.5-11.9,55.2-36.7,67.2-67.3c4.9-12.6,7.4-24.7,7.9-38.8c0.9-27-7.3-53-23.6-74.8C199.8,27.2,164,9.5,127,9.9C123.6,10,119.9,10.1,118.9,10.2z M91.4,93.5l7.6,24.4h48c40.7,0,47.9,0.1,47.9,0.6c0,0.6-9.3,31.4-14.6,48.6l-1.6,5.2h-42.6H93.5l-8-26.7c-4.4-14.6-8.2-26.9-8.3-27.2c-0.1-0.4,1.5-0.6,7.5-0.6c4.8,0,7.7-0.2,7.7-0.5c0-0.4-10.1-33.2-12.5-41l-0.5-1.5h-9.4h-9.4v-3v-3L72.2,69l11.6,0.1L91.4,93.5z M116.4,182c4.9,2.2,7.8,6.8,7.8,12.2c0,11.9-14.2,17.9-22.6,9.5c-2.8-2.8-3.9-5.5-3.8-9.5c0-7.7,5.6-13.2,13.2-13.2C113.3,181.1,114.9,181.4,116.4,182z M169.4,182.3c8,4,10,14.2,4,20.9c-2.7,3-5.9,4.4-10,4.3c-5.2,0-9.4-2.7-12-7.7c-1.6-3-1.5-8,0.2-11.5c2.4-4.9,6.3-7.2,12.1-7.2C166.3,181.1,167.4,181.3,169.4,182.3z"/></g></g></g>
</svg>